<svg id="Layer_1" data-name="Layer 1" xmlns="http://www.w3.org/2000/svg" viewBox="0 0 735.26 197.43"><defs><style>.cls-1{font-size:122.85px;font-family:HelveticaNeue-Bold, Helvetica Neue;font-weight:700;}</style></defs><path d="M5.64,97.3,5,97a8.49,8.49,0,0,1-3.39-3.55,12.31,12.31,0,0,1-1.61-6l.16-1a9.23,9.23,0,0,1,1.13-4.43l.64-1.21a14.9,14.9,0,0,1,1.21-1.77A2.11,2.11,0,0,0,3.55,77l-.41-1.29a17.08,17.08,0,0,1-.8-4.84l-.24-1a7.29,7.29,0,0,1,1.61-4.83l.8-1a4.65,4.65,0,0,1,2.42-1.61,2.21,2.21,0,0,0,1.45-2l.16-2.74A7.66,7.66,0,0,1,11.2,52l1.93-1.45a5.24,5.24,0,0,0,1.13-1.46,2,2,0,0,0,.41-1.61c-.17-.8,0-1,.4-1.13,1.29.49,2.09.33,2.66-.32l1.05-1.37,2.9-3.22a3.26,3.26,0,0,0,.64-3.39l-1-2.09a1,1,0,0,1,.41-1.21,2.16,2.16,0,0,1,2.09,1l.32.56a1.93,1.93,0,0,0,2.42,1,13,13,0,0,1,4.6-.81h2.57a3.54,3.54,0,0,0,3.55-3.06,9.55,9.55,0,0,1,2.26-5.24,13.43,13.43,0,0,1,4.19-3.22,6.88,6.88,0,0,0,3.78-4.83,8.73,8.73,0,0,1,3.79-5.64l6.12-3.47,1.78-1.05A11.56,11.56,0,0,0,62.05,7.7l1.61-1.94a5.6,5.6,0,0,1,2.58-1.61,8.48,8.48,0,0,1,2.9-.32l3.22.24a9.93,9.93,0,0,1,4.19,1l.81.4a1.66,1.66,0,0,0,2-.4l.73-.41L83.56,1a3.17,3.17,0,0,1,2.82-1,10.44,10.44,0,0,1,3.07,1.05,7.91,7.91,0,0,0,4,1.13h.81a24.17,24.17,0,0,1,5.32.64l1.21.32A3.1,3.1,0,0,0,104,2.05a.74.74,0,0,1,1.13-.16,1,1,0,0,1,.4.57A3.62,3.62,0,0,0,108,5.68l1.29.4a6.45,6.45,0,0,1,3.38,2.42,12.49,12.49,0,0,0,2.9,3.22l.81.81a3.87,3.87,0,0,0,3.06,1.05h4.76a13.8,13.8,0,0,1,5.64,1.13,6.87,6.87,0,0,0,5.32.32,12.57,12.57,0,0,1,5.48-.57l3.46.57a6.32,6.32,0,0,1,4.19,2.17l.4.41a22.75,22.75,0,0,1,2.42,3,3,3,0,0,0,2.74,1.61h5a6.71,6.71,0,0,1,3.38.81A26.87,26.87,0,0,1,165,25.42l.81,1a6.11,6.11,0,0,1,1.37,4.27,2.34,2.34,0,0,0,2.25,2.42l1.61.16a3.19,3.19,0,0,1,2.66,1.85l.81,1.62,2.09,4.67a4.59,4.59,0,0,1,.33,2.26,1.9,1.9,0,0,0,.8,1.77l.81.56a3.65,3.65,0,0,1,1.45,3.39l-.56,3.78-.17,1.62a2.65,2.65,0,0,0,1,2.41A3.86,3.86,0,0,1,182,60.32v1.61a3.39,3.39,0,0,1-.8,2.41,4,4,0,0,0-.81,2.42l.24,1.86a4.81,4.81,0,0,0,1.62,3.22,4.89,4.89,0,0,1,1.93,3.38,31.91,31.91,0,0,1,.4,5.24v1.85a5.39,5.39,0,0,0,.24,1.94,2.8,2.8,0,0,0,1.05,1.45l1.61,1.21a8.08,8.08,0,0,1,3.39,4.27,13.08,13.08,0,0,1,1,5.48v.64a13.34,13.34,0,0,1-.65,4.35,5.76,5.76,0,0,0,.24,4,9.87,9.87,0,0,1,1.21,3.79,7.71,7.71,0,0,1-.4,4.51l-.16.57a7.43,7.43,0,0,1-1.86,2.58c-.8.8-1.61,1.28-2.09,1.85a2,2,0,0,0-.56,2l.24,1.13a9.27,9.27,0,0,1,0,4.68v.64a17.29,17.29,0,0,1-1.29,3.22,5.82,5.82,0,0,1-2.42,2.42l-1.21.81a2.1,2.1,0,0,0-1,1.77,3,3,0,0,1-.8,2.09L180,139.37a7.81,7.81,0,0,1-3,2.41,17.72,17.72,0,0,0-2.82,2.42,9.06,9.06,0,0,0-1.77,3.22,2.74,2.74,0,0,1-2.66,2.26h-4.36a3.15,3.15,0,0,0-2.65,1.77,10.64,10.64,0,0,1-1.86,3,6.43,6.43,0,0,0-1.61,2.9c-.16,1-1,1.61-1.77,1.29a2,2,0,0,0-2.58.8,20,20,0,0,1-3,3.87l-.57.48a6.37,6.37,0,0,1-3.62,1.45,2.17,2.17,0,0,0-2.42,1.61,15.23,15.23,0,0,0-.48,2.74,13.37,13.37,0,0,1-.81,2.66l-.4.49c-.81,1.21-1.45,2.41-2.26,3.46l-.32.49a7.49,7.49,0,0,1-4,2.82,16.23,16.23,0,0,1-5.32.8h-1.13a2.77,2.77,0,0,0-2.17,1.29l-.49.81-.48,1-1,1.78a6,6,0,0,1-3.62,2.9,18.54,18.54,0,0,1-5.16.48l-1.29-.16a7.48,7.48,0,0,1-3.22-.81,2.07,2.07,0,0,0-2.42.81,5.38,5.38,0,0,1-2.82,2.1l-2.42.8a10.9,10.9,0,0,1-5.08,0l-1.28-.4a4.42,4.42,0,0,1-2.26-.81,4.39,4.39,0,0,0-2.42-.48l-1,.16a12.05,12.05,0,0,1-4.51-.4l-2.17-.49A4.54,4.54,0,0,1,84.29,187a3.14,3.14,0,0,0-2.42-1.61H79.29a6.08,6.08,0,0,1-4-2L72,180.3l-1.13-1-1.77-1.28-1-.81a9.44,9.44,0,0,0-4.19-1.61l-4.83-.81a7.15,7.15,0,0,1-1.29-.24l-1.86-.4a3.82,3.82,0,0,1-2.17-1.61,1.76,1.76,0,0,0-2.18-.81,20,20,0,0,1-4.19,1.05H46.25a11.7,11.7,0,0,1-6-1.05,10.72,10.72,0,0,1-4.43-3.55,6.63,6.63,0,0,0-4.19-2.74L29.41,165a13.16,13.16,0,0,1-4.67-1.93,8.66,8.66,0,0,1-3.06-3.47,9.63,9.63,0,0,1-1.13-4v-.64a4,4,0,0,0-2.82-3.47A11.61,11.61,0,0,1,13.3,149a5.72,5.72,0,0,1-1.78-4.19l.16-3.55a4.47,4.47,0,0,0-1.37-3.46,5,5,0,0,1-1.61-3.47l-.24-2.9a41.71,41.71,0,0,0-1.05-6.29,4.05,4.05,0,0,1,1.78-4.59l.56-.4a2,2,0,0,0,.65-2.58l-.65-.81a6.09,6.09,0,0,0-2.42-1.61,1.17,1.17,0,0,1-.8-1.21l.8-1a1.56,1.56,0,0,0,0-1.94,3.66,3.66,0,0,1-1-2.25l-.17-5.65a12.39,12.39,0,0,1,.49-3.38,2.1,2.1,0,0,0-1-2.58ZM85.42,86.67a1.5,1.5,0,0,0,0-2,7.91,7.91,0,0,1-1.86-2.17l-.8-1.29a11.66,11.66,0,0,0-2.1-2.74l-.16-.16a7.07,7.07,0,0,1-1.85-2.42,2.53,2.53,0,0,1,0-2.42l.48-.81a6,6,0,0,0,.81-2.9v-.32A4.88,4.88,0,0,0,79.13,67a9.33,9.33,0,0,1-.8-2.25v-.49A3.26,3.26,0,0,1,79,61.44a9.47,9.47,0,0,0,1.37-3.22v-.16A3.16,3.16,0,0,0,80,55.4a2.86,2.86,0,0,1-.32-2.58l.56-1.61a11.37,11.37,0,0,1,2.18-3.87l1.12-1.21.81-1,.48-.49A1.54,1.54,0,0,0,85,42.75a3.79,3.79,0,0,1-.48-2.42l.16-1.13a9.35,9.35,0,0,1,1.85-4.51l.33-.32a9,9,0,0,1,4.51-3.23l2.18-.8a2.56,2.56,0,0,0,1.61-2.42,5.87,5.87,0,0,1,1.13-3.46l.4-.41a46,46,0,0,0,2.42-4.19l.56-1a1.6,1.6,0,0,0,.24-.81,2.44,2.44,0,0,0-2.09-2.66l-3.55-.24c-2-.16-4,0-6,0l-6.85.8a2,2,0,0,0-1.94,1.94,2.62,2.62,0,0,1-1.77,2.42l-2.9.8-.81.24-2.41.81a6.57,6.57,0,0,0-4,3.63l-.65,1a9.77,9.77,0,0,1-3.86,4.27,5.89,5.89,0,0,0-2.58,4.68v.8a8,8,0,0,1-1.61,4.36l-.41.64a2.65,2.65,0,0,0-.4,2.74,6.72,6.72,0,0,1,.56,3.06v4.27A2.71,2.71,0,0,1,57.05,54a3.43,3.43,0,0,0-2.17,2.42l-.41,1.61a4.07,4.07,0,0,0,1.61,4.19,6.52,6.52,0,0,1,2.42,4.19v1.45a5.53,5.53,0,0,0,2.58,4,8.79,8.79,0,0,1,3.22,4l.41,1.29a4.38,4.38,0,0,0,3.7,3h.49a4.2,4.2,0,0,1,3.54,2.09A5.24,5.24,0,0,0,76,84.73l2.25.65A8.66,8.66,0,0,1,82,87.55l.16.16a2,2,0,0,0,2.82-.32l.57-.64Zm9.18-7.42a1.27,1.27,0,0,0,1.94-.48l.24-.4a17.16,17.16,0,0,1,2.09-3.23l1.62-2.41c.24,0,.32-.17.4-.33l1.93-2.58a4.17,4.17,0,0,1,2.9-1.37,2.59,2.59,0,0,0,2.42-1.61,6.3,6.3,0,0,1,1.77-3.06l.41-.48a8.25,8.25,0,0,1,2.41-1.61,18.85,18.85,0,0,1,3-.33h2.41a2.49,2.49,0,0,0,2.26-1.21,4.77,4.77,0,0,1,2-1.77l.81-.32a14.75,14.75,0,0,1,4.19-1.13l1.61-.16a5.65,5.65,0,0,1,3,.56,2.17,2.17,0,0,0,2.66-.16l.57-.32a9.15,9.15,0,0,1,4-1.61h.16a18.32,18.32,0,0,1,4.67-.24h.81a6.26,6.26,0,0,1,4,2l.24.32a4.92,4.92,0,0,0,3.22,1.45h1.37a1.18,1.18,0,0,0,1.05-.56,1.59,1.59,0,0,1,1-.48h.8a10.9,10.9,0,0,1,3.22.64l1.37.57a22.75,22.75,0,0,0,4,1h1a1,1,0,0,0,1-1,4.2,4.2,0,0,0-.57-2.26l-.56-1.29a31.18,31.18,0,0,1-1.61-3.22l-.16-.41a2.51,2.51,0,0,1,0-2.41V49a1.37,1.37,0,0,0-.81-1.61h-.64a6.47,6.47,0,0,1-3.23-2.17l-.8-.81a7.11,7.11,0,0,1-1.61-3.22,2.68,2.68,0,0,0-2.42-1.86h-3.39a4.45,4.45,0,0,1-3-1.77l-.32-.4a11,11,0,0,1-1.37-2.74,1.85,1.85,0,0,0-2.1-1l-1,.32a11.12,11.12,0,0,1-4.84.65l-1.29-.16a6.16,6.16,0,0,1-3.7-1.37l-.81-.57a10.46,10.46,0,0,0-2-1.13,1.57,1.57,0,0,0-1.94.41l-.4.48a5.64,5.64,0,0,1-3.06,1.61l-4.35.24a3.21,3.21,0,0,0-2.18,1A4.63,4.63,0,0,1,117,35.9h-.16A4.65,4.65,0,0,0,114.43,37v.16a4.13,4.13,0,0,1-2.9,1.21l-.33.16a11.89,11.89,0,0,0-2.9.24h-1a3.53,3.53,0,0,0-2.73,2.82l-.33,1.85a8,8,0,0,1-1.61,3.47,3.84,3.84,0,0,1-3,1.61H98.31a1.87,1.87,0,0,0-1.45,2,11.77,11.77,0,0,1-.24,3.78l-.32,1.37a3.74,3.74,0,0,1-2.18,2.58l-.48.24h-.17a1.18,1.18,0,0,0-.4,1.61,3.83,3.83,0,0,1,.57,2.42l-.25,2.58a6.07,6.07,0,0,1-.8,2.66,2.55,2.55,0,0,0-.16,2.42l.8,1.77a3.45,3.45,0,0,1,.24,2.58A6.29,6.29,0,0,0,93.15,77a2.24,2.24,0,0,0,1.13,1.93l.16.16Zm63.66,58.26a2.36,2.36,0,0,0,3,.49l1.62-1.05a4.59,4.59,0,0,0,1.77-2.42v-.16l.8-2.42.49-.8.32-.81.32-.56a2.5,2.5,0,0,1,1.61-1.37l.33-.16a1.49,1.49,0,0,0,1-1.45,3.48,3.48,0,0,1,.81-2l.64-.56,1.62-2.1V122a5.3,5.3,0,0,0,1-2.18,4.23,4.23,0,0,0-.32-2.41l-.16-.32a7.47,7.47,0,0,1-.56-2.1l-.25-2.26-.24-2.41a4.72,4.72,0,0,1,.81-2.42,8.14,8.14,0,0,0,1.29-2.26v-.32l.16-.16c.16-.81-.24-1.61-1-1.61a3.31,3.31,0,0,1-1.85-2l-.24-.48a16,16,0,0,1-.65-4.35l.16-4v-.24A2.43,2.43,0,0,0,168.34,90h-.17a5.31,5.31,0,0,1-4-1.61l-.65-.81-1.61-1.85-2.1-2.42a18.71,18.71,0,0,0-2.66-3.06,6,6,0,0,0-3.22-1.77l-1.61-.25a8.63,8.63,0,0,1-2.74-1.12,1.75,1.75,0,0,0-2.26.32l-1,1.13-.49.32A1.14,1.14,0,0,1,144.4,78a4.07,4.07,0,0,1,.16-3.06V74.5a.77.77,0,0,0-1-.81h-1.29a9.89,9.89,0,0,1-4.27-.8l-.81-.33a6.16,6.16,0,0,0-2.66-.64,4.61,4.61,0,0,0-2.42.64l-.32.25a6.67,6.67,0,0,1-3.22,1H126a5.33,5.33,0,0,0-3.22,1.05,10,10,0,0,1-3.39,1.29l-2.17.32a7.34,7.34,0,0,0-2.9,1.37,7.15,7.15,0,0,1-3,1.61l-.4.17a5.9,5.9,0,0,0-3.22,2.41l-1,1a2.19,2.19,0,0,0,0,2.58,2.1,2.1,0,0,0,2.42.8l1.21-.48a2.36,2.36,0,0,1,1.93.32,2.61,2.61,0,0,0,1.93.57l2-.24a12.08,12.08,0,0,1,3.38.32,9.25,9.25,0,0,1,3.23,1.61A6,6,0,0,0,126,89.81a17.58,17.58,0,0,1,3.55.8l.8.17a3.41,3.41,0,0,1,1.94,1.61,5.08,5.08,0,0,1,.8,2.41v.25a1.62,1.62,0,0,0,1.61,1.61h.49a14.39,14.39,0,0,1,4,.56l.56.24A4.75,4.75,0,0,1,142,99.08a7.07,7.07,0,0,1,1.28,2.41l.25,1.13a18.83,18.83,0,0,1,.32,3.71v.4a2.12,2.12,0,0,0,1.45,1.93,10.28,10.28,0,0,1,2.66,1l.4.16a11.79,11.79,0,0,1,2.9,2.42l.4.56a6.56,6.56,0,0,1,1.62,4.28v.56a10.62,10.62,0,0,1-.65,3.54,1.81,1.81,0,0,0,1,2.42l.56.41a7.43,7.43,0,0,1,3.07,2.41,7.14,7.14,0,0,1,1.12,4v2.42a5.05,5.05,0,0,1-.8,2,1.72,1.72,0,0,0,0,1.94l.48.8ZM106.69,96.25h-.16c-.32,0-.48.41-.4.81l.32,1.61a32.52,32.52,0,0,1,.64,3.87,5,5,0,0,0,1.78,3.22h.32a5.41,5.41,0,0,1,2,3.87v4a2.79,2.79,0,0,0,.49,2.26l.4.4a5.47,5.47,0,0,1,1.21,3.22l.24,4.44a2,2,0,0,1-1.61,2.09l-.81.16c-.56,0-.8.65-.8,1.21a6.14,6.14,0,0,0,.48,2v.17A6.2,6.2,0,0,1,111,132l-.32,2.18a15.21,15.21,0,0,1-1.61,4.51l-.57,1a3.44,3.44,0,0,1-1.61,1.61,2.73,2.73,0,0,0-1.61,1.77l-.64,2.9a18,18,0,0,1-2.1,4.84h-.16A11.58,11.58,0,0,1,98.79,154l-1,.65-2.42,1.21A2.41,2.41,0,0,0,94,157.82l-.4,2.66a6.63,6.63,0,0,1-1.94,4l-1.05,1.21-1.2,1.21-1.21,1.28a4.27,4.27,0,0,1-4,1.37l-2.9-.56-2.66-.32h-.73a1.08,1.08,0,0,0-.16,1.29,2.93,2.93,0,0,0,2.42,1.61l1.77.32a6.3,6.3,0,0,1,2.58.81A7.83,7.83,0,0,0,87,173.94h.16a7.47,7.47,0,0,0,3.22.4l1.21-.16a7.43,7.43,0,0,1,3.79.48l1,.32a1.5,1.5,0,0,0,1.45-.4,4.25,4.25,0,0,1,1.61-1.05l.64-.16a10.89,10.89,0,0,1,3.23-.48H104a5,5,0,0,1,2.66.64l.32.16a1.4,1.4,0,0,0,1.61-.48,5.22,5.22,0,0,1,1.37-1.61l2-1.37,1.29-.81.64-.4a5.32,5.32,0,0,1,2.9-.81l2.9-.24a2.93,2.93,0,0,0,2.42-2.09,9.79,9.79,0,0,1,1.61-3.47,29.25,29.25,0,0,1,2.42-2.74,5.9,5.9,0,0,1,3.22-1.29H130a2.68,2.68,0,0,0,2.17-2.74v-5.4a9.17,9.17,0,0,1,1-2.65l1.61-2.42.65-.81a15.83,15.83,0,0,0,1.37-1.61l.8-1.05a2.16,2.16,0,0,0-.16-2.58,5.35,5.35,0,0,1-1.37-3.06v-.32a9.9,9.9,0,0,1,.24-4v-.4a15.77,15.77,0,0,1,1.62-3.06,1.81,1.81,0,0,0-.25-2.58l-1.37-1.21a6,6,0,0,1-1.93-3.87l-.16-1.61a5.78,5.78,0,0,0-.16-1.61l-.16-1.21a4.59,4.59,0,0,0-2.1-3.22l-.56-.17a7.12,7.12,0,0,1-2.26-2.17,7.51,7.51,0,0,1-1.21-3.06l-.24-1.37a1.18,1.18,0,0,0-.81-1l-1.28-.4-2.58-.81a4.83,4.83,0,0,1-2.18-1.37h-.16a1.15,1.15,0,0,0-1.77-.16l-.81.81c-.16.24-.32.32-.56.24a.62.62,0,0,1-.65-.81,3.64,3.64,0,0,0-1.37-3.38l-1-.81-2.41-1.61a1.56,1.56,0,0,0-1.94.8l-.32.49c0,.16-.24.24-.32.32-.32,0-.81,0-.81-.4l-.24-.41a2.2,2.2,0,0,0-1.29-1ZM97,104.31l-.4-.4a.83.83,0,0,0-1.21.16,11.16,11.16,0,0,0-1.29,3.06v.16a2,2,0,0,1-2.18,1.62H91A2.06,2.06,0,0,0,89,111a6.56,6.56,0,0,1-1.37,4l-.48.48a6.8,6.8,0,0,1-3.22,2.18l-.65.16a2.17,2.17,0,0,0-1.61,1.77,3.36,3.36,0,0,1-1.13,2.26l-.8.64a6.18,6.18,0,0,1-3.87,1.78l-4,.4a4,4,0,0,0-3.22,2,4.82,4.82,0,0,1-3.23,2.18l-1.77.16a11.47,11.47,0,0,1-4-.16l-.81-.16-2.17-.56a1.73,1.73,0,0,0-1.94.56l-.8,1.05a4.68,4.68,0,0,1-4,1.61l-5.24-.65a4.5,4.5,0,0,1-2.17-.8,10.25,10.25,0,0,1-1.94-1.61l-2-2.42a1.48,1.48,0,0,0-1-.16l-1.13.48-4.51,1.13a3.57,3.57,0,0,1-2.66-.48,4.19,4.19,0,0,0-2.74-.81H25.3A1.81,1.81,0,0,0,24,128.33l.33,1.61a3.59,3.59,0,0,1-.25,2.58,2.21,2.21,0,0,0,.25,2.41l.48.65a17.91,17.91,0,0,0,2.42,2.58,14.31,14.31,0,0,1,2.25,2.66L30.7,143a3.22,3.22,0,0,0,2.9,1.78A5.32,5.32,0,0,1,37,146l2.41,2.26a1.84,1.84,0,0,0,2.26.16l.4-.16a.76.76,0,0,1,.81.81v.4a2.77,2.77,0,0,0,1.85,2.42l3.63.8a14.55,14.55,0,0,1,3.79,1.61h.64A1.14,1.14,0,0,0,53.91,153v-2.82a2.1,2.1,0,0,1,1-1.93l.4-.16c.4.16.8.48.64.8v1.37A3.78,3.78,0,0,0,57,153a2.57,2.57,0,0,0,2.74.65,6.3,6.3,0,0,1,3-.4l3,.16a7.44,7.44,0,0,0,4-.57,12.07,12.07,0,0,0,3.79-2l.48-.32,2.42-2.18a4,4,0,0,1,2.82-1.21h3.23a3.76,3.76,0,0,0,3.22-3.22l.32-1.61a4.22,4.22,0,0,1,1.21-2.82,7,7,0,0,1,2.42-1.61l1-.41a5.22,5.22,0,0,0,2.9-3.22l.49-1.93A8.36,8.36,0,0,1,96.38,128l.16-.16A2.9,2.9,0,0,0,97,124.3l-.24-.57a3.33,3.33,0,0,1-.24-3.06A13,13,0,0,1,98,117.61l.8-1.13a2.07,2.07,0,0,0-.16-2.17,3.91,3.91,0,0,1-.8-2.26l-.16-1.13v-2.74a5.92,5.92,0,0,0-.25-2.66l-.32-1ZM85.5,98.19V98a1.15,1.15,0,0,0-1.13-1.29h-2.1a5.32,5.32,0,0,1-2.25,0H76.39a20.17,20.17,0,0,1-5.4-.81l-1.93-.48-1.61-.48-3.63-1.21a6.89,6.89,0,0,1-4.27-3.63l-.4-.81a2.73,2.73,0,0,0-3-1.61,8.73,8.73,0,0,1-4-.64l-1-.4A5,5,0,0,1,48,82l-.33-2.17a3.57,3.57,0,0,0-1.93-2.58,18.28,18.28,0,0,1-3.22-1.86l-.41-.24a8.84,8.84,0,0,1-2.82-3.78l-.16-.49a7.64,7.64,0,0,1-.16-4l.16-.48a10.83,10.83,0,0,0,.41-3.22,3.8,3.8,0,0,0-1.13-2.66l-1.13-1a5.85,5.85,0,0,1-2.18-4.27A18.51,18.51,0,0,1,35.21,50v-.48a1.61,1.61,0,0,0-1.61-1.61h-.24a2.73,2.73,0,0,0-2.42,1.61,9.54,9.54,0,0,1-1.77,2.9l-.32.4-1.61,1.61-.81.81A5.67,5.67,0,0,0,25,58.46,13.36,13.36,0,0,1,24,62l-.16.4A5.62,5.62,0,0,1,22,64.83a3.43,3.43,0,0,0-1.37,2.58l-.16,3.7A14.34,14.34,0,0,1,19.66,76l-.16.64a2.08,2.08,0,0,0,1,2.66l3.38,1.45.32.16c.25,0,.33.17.41.41.24.32,0,.8-.24.8l-.81.41a1.68,1.68,0,0,0-1,1.2l-.16.81v.16l-.8,4.51a8.44,8.44,0,0,0-.17,2.1,1.6,1.6,0,0,0,1,1.45l1.77.81a16.68,16.68,0,0,1,2.42,1.61l.81.64a3.06,3.06,0,0,0,1,.81l.33.32a3.51,3.51,0,0,1,1.13,1.85l.8,3.63a2.25,2.25,0,0,0,1.61,2l1.29.41a.62.62,0,0,1,.4.16l1.62.48a8.2,8.2,0,0,1,3.38,2.1,16.07,16.07,0,0,1,2.74,3l.32.32a2.52,2.52,0,0,0,2.58,1,12.87,12.87,0,0,1,3.06-.33h1.21a5.34,5.34,0,0,1,2.74.81,23.67,23.67,0,0,0,2.82,1.21h.24a2.94,2.94,0,0,0,2.82-.32,4.66,4.66,0,0,1,2.91-1l3.78.24a2.25,2.25,0,0,0,2-.8h.16l1.37-1.29.4-.41a3.57,3.57,0,0,1,2.58-1.2H74.3a2.79,2.79,0,0,0,2.25-1.62,3,3,0,0,1,2.18-1.61l1.61-.32a1.69,1.69,0,0,0,1.45-1.29A4,4,0,0,1,83,102l1.29-1.29a4.56,4.56,0,0,0,1.37-2.58Z"/><text class="cls-1" transform="translate(205.54 138.34)">ClosedAI</text></svg>